HIERARCHY
ROOT Hips
{
	OFFSET 0.000000 0.000000 0.000000
	CHANNELS 6 Xposition Yposition Zposition Xrotation Yrotation Zrotation
	JOINT LeftUpLeg_virtual
	{
		OFFSET 0.000000 0.000000 0.000000
		CHANNELS 3 Xrotation Yrotation Zrotation
		JOINT LeftUpLeg
		{
			OFFSET 13.026900 -6.336304 -1.092800
			CHANNELS 3 Xrotation Yrotation Zrotation
			JOINT LeftLeg
			{
				OFFSET 0.524474 -46.096886 9.782700
				CHANNELS 3 Xrotation Yrotation Zrotation
				JOINT LeftFoot
				{
					OFFSET -0.524474 -53.427422 -12.948200
					CHANNELS 3 Xrotation Yrotation Zrotation
					JOINT LeftToeBase
					{
						OFFSET 0.192200 -14.009700 16.364100
						CHANNELS 3 Xrotation Yrotation Zrotation
						JOINT LeftToe_End
						{
							OFFSET -1.784700 -0.561700 9.474800
							CHANNELS 3 Xrotation Yrotation Zrotation
							End Site
							{
								OFFSET 0 0 0
							}
						}
					}
				}
			}
		}
	}
	JOINT RightUpLeg_virtual
	{
		OFFSET 0.000000 0.000000 0.000000
		CHANNELS 3 Xrotation Yrotation Zrotation
		JOINT RightUpLeg
		{
			OFFSET -12.883000 -6.336304 -1.092800
			CHANNELS 3 Xrotation Yrotation Zrotation
			JOINT RightLeg
			{
				OFFSET -0.524587 -46.096825 9.782800
				CHANNELS 3 Xrotation Yrotation Zrotation
				JOINT RightFoot
				{
					OFFSET 0.524587 -53.427383 -12.948300
					CHANNELS 3 Xrotation Yrotation Zrotation
					JOINT RightToeBase
					{
						OFFSET -0.192200 -14.009700 16.364100
						CHANNELS 3 Xrotation Yrotation Zrotation
						JOINT RightToe_End
						{
							OFFSET 1.784700 -0.561700 9.474800
							CHANNELS 3 Xrotation Yrotation Zrotation
							End Site
							{
								OFFSET 0 0 0
							}
						}
					}
				}
			}
		}
	}
	JOINT Spine_virtual
	{
		OFFSET 0.000000 0.000000 0.000000
		CHANNELS 3 Xrotation Yrotation Zrotation
		JOINT Spine
		{
			OFFSET 0.072000 7.257294 -0.789700
			CHANNELS 3 Xrotation Yrotation Zrotation
			JOINT Spine1
			{
				OFFSET 0.000000 12.508769 -0.658067
				CHANNELS 3 Xrotation Yrotation Zrotation
				JOINT Spine1_split
				{
					OFFSET 0.000000 12.508769 -0.658067
					CHANNELS 3 Xrotation Yrotation Zrotation
					JOINT Spine2
					{
						OFFSET 0.000000 12.508769 -0.658067
						CHANNELS 3 Xrotation Yrotation Zrotation
						JOINT Neck_virtual
						{
							OFFSET 0.000000 0.000000 0.000000
							CHANNELS 3 Xrotation Yrotation Zrotation
							JOINT Neck
							{
								OFFSET 0.000000 14.033295 7.520400
								CHANNELS 3 Xrotation Yrotation Zrotation
								JOINT Head
								{
									OFFSET 0.000000 8.198502 5.703100
									CHANNELS 3 Xrotation Yrotation Zrotation
									JOINT HeadTop_End
									{
										OFFSET 0.000000 17.760803 13.332701
										CHANNELS 3 Xrotation Yrotation Zrotation
										End Site
										{
											OFFSET 0 0 0
										}
									}
								}
							}
						}
						JOINT LeftShoulder_virtual
						{
							OFFSET 0.000000 0.000000 0.000000
							CHANNELS 3 Xrotation Yrotation Zrotation
							JOINT LeftShoulder
							{
								OFFSET 6.292450 5.785301 -0.669000
								CHANNELS 3 Xrotation Yrotation Zrotation
								JOINT LeftShoulder_split
								{
									OFFSET 6.292450 5.785301 -0.669000
									CHANNELS 3 Xrotation Yrotation Zrotation
									JOINT LeftArm
									{
										OFFSET 13.907140 -6.093903 1.965100
										CHANNELS 3 Xrotation Yrotation Zrotation
										JOINT LeftForeArm
										{
											OFFSET 34.140198 0.000000 0.000000
											CHANNELS 3 Xrotation Yrotation Zrotation
											JOINT LeftHand
											{
												OFFSET 40.960209 0.000000 0.000000
												CHANNELS 3 Xrotation Yrotation Zrotation
												End Site
												{
													OFFSET 0 0 0
												}
											}
										}
									}
								}
							}
						}
						JOINT RightShoulder_virtual
						{
							OFFSET 0.000000 0.000000 0.000000
							CHANNELS 3 Xrotation Yrotation Zrotation
							JOINT RightShoulder
							{
								OFFSET -6.292450 5.785301 -0.669000
								CHANNELS 3 Xrotation Yrotation Zrotation
								JOINT RightShoulder_split
								{
									OFFSET -6.292450 5.785301 -0.669000
									CHANNELS 3 Xrotation Yrotation Zrotation
									JOINT RightArm
									{
										OFFSET -13.907140 -6.093903 1.965100
										CHANNELS 3 Xrotation Yrotation Zrotation
										JOINT RightForeArm
										{
											OFFSET -34.140198 0.000000 0.000000
											CHANNELS 3 Xrotation Yrotation Zrotation
											JOINT RightHand
											{
												OFFSET -40.960209 0.000000 0.000000
												CHANNELS 3 Xrotation Yrotation Zrotation
												End Site
												{
													OFFSET 0 0 0
												}
											}
										}
									}
								}
							}
						}
					}
				}
			}
		}
	}
}
MOTION
Frames: 5
Frame Time: 0.03333333
-3.881399 105.355431 7.167458 0.000000 0.000000 0.000000 32.593331 -8.787201 -4.790446 -60.510087 6.481801 1.767223 64.196627 -7.776754 1.940421 3.738189 -0.239736 10.379787 -19.037306 -1.637181 1.960232 0.000000 0.000000 0.000000 30.929006 -8.957550 -4.897652 -33.285469 -19.338987 1.521163 38.960690 -4.996310 0.171121 -28.420183 5.422244 2.494131 -3.948576 -1.527884 0.024669 0.000000 0.000000 0.000000 29.999523 -4.817407 -5.206043 3.695054 4.284548 1.319211 -0.266467 1.668996 -0.510747 0.125476 -0.548517 -0.196316 0.000000 0.000000 0.000000 0.138560 1.566121 -0.316860 -11.356722 0.119872 3.104591 -10.536438 3.670336 -3.147043 0.000000 0.000000 0.000000 -0.850861 1.878103 -0.533909 1.236648 0.955492 -19.906236 2.943511 -2.031063 0.154676 18.771674 -3.969457 -42.521394 2.573197 -68.052699 0.521624 0.000000 0.000000 0.000000 0.005217 1.528045 -0.980655 1.621042 3.947021 18.015321 2.635056 2.252126 -2.450774 7.809912 -11.345467 51.470086 -0.013806 67.040629 1.152187 0.000000 0.000000 0.000000 
-4.132808 104.630844 10.672657 0.000000 0.000000 0.000000 31.828497 -10.900411 -4.495923 -64.120388 7.535262 2.502804 59.798108 -7.483599 1.231803 3.784476 -0.556164 10.086859 -17.106053 -1.253142 1.573911 0.000000 0.000000 0.000000 31.989379 -9.166424 -4.724668 -32.042818 -18.585409 2.058741 39.920905 -5.879588 0.785171 -26.891250 3.577446 2.967994 -8.269760 -1.653697 0.373053 0.000000 0.000000 0.000000 29.499010 -4.444130 -5.656609 4.226403 4.522799 1.082563 -0.070241 1.777500 -0.472689 0.362891 0.847102 -0.165662 0.000000 0.000000 0.000000 -0.129088 1.584751 -0.365998 -11.643273 0.031700 3.060064 -10.730710 3.545106 -2.999129 0.000000 0.000000 0.000000 -0.759008 1.981796 -0.534721 1.255991 0.910991 -19.575565 2.330107 -1.639289 -0.165607 18.565834 -4.061585 -43.041079 2.623884 -68.334827 0.753875 0.000000 0.000000 0.000000 0.084894 1.624120 -1.052467 1.638043 4.338200 17.872616 3.088599 2.691893 -2.552356 7.736845 -10.819674 51.298259 0.120752 68.144456 0.938282 0.000000 0.000000 0.000000 
-4.815179 103.788742 15.287365 0.000000 0.000000 0.000000 31.314959 -13.350678 -3.812024 -69.838452 7.741141 3.238352 56.705497 -6.903877 0.641736 5.072692 0.361786 9.707151 -12.283734 -0.638209 0.564528 0.000000 0.000000 0.000000 32.485073 -9.450903 -4.578517 -29.285136 -16.698081 2.722953 40.552110 -6.647805 1.310957 -27.064351 1.064531 2.339074 -7.853322 -1.366581 0.331086 0.000000 0.000000 0.000000 28.868478 -4.613974 -5.856641 4.839183 4.859160 0.652435 0.204364 1.953975 -0.466197 0.623942 2.109019 0.178976 0.000000 0.000000 0.000000 -0.296024 1.666734 -0.467389 -12.074256 -0.009289 2.828743 -11.216062 3.189875 -2.692298 0.000000 0.000000 0.000000 -0.569919 2.119562 -0.544688 1.325005 0.990793 -18.972485 1.812869 -1.394056 -0.481371 18.159234 -4.156809 -43.986616 2.849636 -68.567279 1.259877 0.000000 0.000000 0.000000 0.134573 1.771725 -1.144555 1.662022 4.927668 17.606713 3.564939 3.066193 -2.565206 8.556393 -10.410975 51.279848 0.150774 70.027703 0.794422 0.000000 0.000000 0.000000 
-5.856477 103.023209 20.167290 0.000000 0.000000 0.000000 30.927950 -15.141974 -2.831073 -75.496868 7.263505 3.033410 54.314159 -5.844601 0.530675 6.673134 2.244871 9.714050 -7.133100 -0.162351 -0.411115 0.000000 0.000000 0.000000 32.271186 -10.061683 -4.201558 -25.856859 -14.255025 2.968559 39.214223 -6.946067 1.385583 -28.382641 -1.147105 1.456080 -3.284351 -0.586785 -0.041561 0.000000 0.000000 0.000000 28.737673 -4.917078 -5.716292 5.361861 5.234352 -0.120786 0.441818 2.141865 -0.462201 0.758111 2.504984 0.466568 0.000000 0.000000 0.000000 -0.319582 1.841655 -0.578945 -12.528052 0.026242 2.483595 -11.869730 2.761996 -2.309778 0.000000 0.000000 0.000000 -0.347981 2.284106 -0.532730 1.419451 1.105259 -18.195928 1.509423 -1.283132 -0.760979 17.587005 -4.111517 -45.315085 3.145740 -68.774336 1.911033 0.000000 0.000000 0.000000 0.152158 1.952244 -1.226043 1.704419 5.571455 17.256073 3.823759 3.349461 -2.413985 10.231354 -10.297322 51.506521 0.139006 72.382643 0.669338 0.000000 0.000000 0.000000 
-6.991274 102.447151 25.408342 0.000000 0.000000 0.000000 30.652868 -15.638669 -1.972644 -79.422164 7.160836 1.983284 50.850861 -3.936043 0.719004 7.025849 4.428791 11.021072 -4.195971 0.003046 -0.796156 0.000000 0.000000 0.000000 31.675798 -10.495936 -3.593858 -21.144326 -11.891195 3.295258 34.901703 -6.757883 0.644474 -29.905778 -2.737004 0.598984 -0.959756 0.578847 -0.724955 0.000000 0.000000 0.000000 29.303629 -4.989244 -5.208415 5.689804 5.568004 -1.319378 0.599398 2.359770 -0.449486 1.193701 2.481668 0.632984 0.000000 0.000000 0.000000 -0.258393 2.100385 -0.672466 -12.862392 0.086857 2.118408 -12.504171 2.506757 -1.955316 0.000000 0.000000 0.000000 -0.171407 2.471238 -0.506349 1.498201 1.201224 -17.422698 1.302782 -1.270342 -1.082944 16.877408 -3.796175 -46.860818 3.373695 -69.087500 2.535239 0.000000 0.000000 0.000000 0.111147 2.169718 -1.256039 1.759463 6.131758 16.907653 3.696731 3.844783 -2.198935 12.451493 -10.552184 52.016433 0.145416 74.850513 0.531192 0.000000 0.000000 0.000000 
